<mxfile host="65bd71144e">
    <diagram id="yDrfxnIEmq6K1OEeBAZV" name="Page-1">
        <mxGraphModel dx="601" dy="836" grid="1" gridSize="10" guides="1" tooltips="1" connect="1" arrows="1" fold="1" page="1" pageScale="1" pageWidth="1169" pageHeight="827" math="0" shadow="0">
            <root>
                <mxCell id="0"/>
                <mxCell id="1" parent="0"/>
                <mxCell id="3" value="" style="rounded=1;whiteSpace=wrap;html=1;fillColor=none;strokeColor=#000000;" parent="1" vertex="1">
                    <mxGeometry x="30" y="30" width="440" height="190" as="geometry"/>
                </mxCell>
                <mxCell id="4" value="" style="endArrow=classic;html=1;startArrow=none;startFill=0;endFill=1;strokeWidth=2;fontColor=#000000;strokeColor=#000000;" parent="1" edge="1">
                    <mxGeometry width="50" height="50" relative="1" as="geometry">
                        <mxPoint x="50" y="180" as="sourcePoint"/>
                        <mxPoint x="450" y="180" as="targetPoint"/>
                    </mxGeometry>
                </mxCell>
                <mxCell id="6" value="90" style="edgeLabel;html=1;align=center;verticalAlign=middle;resizable=0;points=[];fontColor=#000000;fontSize=20;" parent="4" vertex="1" connectable="0">
                    <mxGeometry x="-0.5355" y="1" relative="1" as="geometry">
                        <mxPoint x="27" y="21" as="offset"/>
                    </mxGeometry>
                </mxCell>
                <mxCell id="7" value="500cm" style="edgeLabel;html=1;align=center;verticalAlign=middle;resizable=0;points=[];fontColor=#000000;fontSize=20;" parent="4" vertex="1" connectable="0">
                    <mxGeometry x="0.8955" y="3" relative="1" as="geometry">
                        <mxPoint y="23" as="offset"/>
                    </mxGeometry>
                </mxCell>
                <mxCell id="5" value="" style="endArrow=none;html=1;fillColor=#008a00;strokeColor=#005700;strokeWidth=4;" parent="1" edge="1">
                    <mxGeometry width="50" height="50" relative="1" as="geometry">
                        <mxPoint x="50" y="180" as="sourcePoint"/>
                        <mxPoint x="170" y="80" as="targetPoint"/>
                    </mxGeometry>
                </mxCell>
                <mxCell id="8" value="" style="endArrow=none;html=1;fillColor=#008a00;strokeColor=#005700;strokeWidth=4;" parent="1" edge="1">
                    <mxGeometry width="50" height="50" relative="1" as="geometry">
                        <mxPoint x="170" y="80" as="sourcePoint"/>
                        <mxPoint x="430" y="80" as="targetPoint"/>
                    </mxGeometry>
                </mxCell>
                <mxCell id="9" value="" style="endArrow=none;html=1;fillColor=#008a00;strokeColor=#005700;strokeWidth=4;" parent="1" edge="1">
                    <mxGeometry width="50" height="50" relative="1" as="geometry">
                        <mxPoint x="430" y="180" as="sourcePoint"/>
                        <mxPoint x="430" y="80" as="targetPoint"/>
                    </mxGeometry>
                </mxCell>
                <mxCell id="10" value="" style="endArrow=classic;html=1;startArrow=none;startFill=0;endFill=1;strokeWidth=2;fontColor=#000000;strokeColor=#000000;" parent="1" edge="1">
                    <mxGeometry width="50" height="50" relative="1" as="geometry">
                        <mxPoint x="50" y="180" as="sourcePoint"/>
                        <mxPoint x="50" y="50" as="targetPoint"/>
                    </mxGeometry>
                </mxCell>
                <mxCell id="11" value="" style="endArrow=none;html=1;fontColor=#33FF33;strokeWidth=4;fillColor=#6a00ff;strokeColor=#3700CC;" parent="1" edge="1">
                    <mxGeometry width="50" height="50" relative="1" as="geometry">
                        <mxPoint x="50" y="80" as="sourcePoint"/>
                        <mxPoint x="170" y="180" as="targetPoint"/>
                    </mxGeometry>
                </mxCell>
                <mxCell id="12" value="LEJOS" style="text;html=1;align=center;verticalAlign=middle;resizable=0;points=[];autosize=1;strokeColor=none;fillColor=none;fontColor=#33FF33;fontSize=20;" parent="1" vertex="1">
                    <mxGeometry x="245" y="45" width="80" height="30" as="geometry"/>
                </mxCell>
                <mxCell id="13" value="CERCA" style="text;html=1;align=center;verticalAlign=middle;resizable=0;points=[];autosize=1;fontColor=#0000FF;fontSize=20;" parent="1" vertex="1">
                    <mxGeometry x="55" y="45" width="90" height="30" as="geometry"/>
                </mxCell>
                <mxCell id="14" value="0" style="edgeLabel;html=1;align=center;verticalAlign=middle;resizable=0;points=[];fontColor=#000000;fontSize=20;" vertex="1" connectable="0" parent="1">
                    <mxGeometry x="190" y="210" as="geometry">
                        <mxPoint x="-131" y="-8" as="offset"/>
                    </mxGeometry>
                </mxCell>
            </root>
        </mxGraphModel>
    </diagram>
</mxfile>